<mxfile host="65bd71144e">
    <diagram name="Page-1" id="c9db0220-8083-56f3-ca83-edcdcd058819">
        <mxGraphModel dx="2218" dy="1630" grid="1" gridSize="10" guides="1" tooltips="1" connect="1" arrows="1" fold="1" page="1" pageScale="1.5" pageWidth="1169" pageHeight="827" background="#ffffff" math="0" shadow="0">
            <root>
                <mxCell id="0" style=";html=1;"/>
                <mxCell id="1" style=";html=1;" parent="0"/>
                <mxCell id="3d76a8aef4d5c911-1" value="" style="html=1;shadow=0;dashed=0;shape=mxgraph.bootstrap.rect;fillColor=#222222;strokeColor=none;whiteSpace=wrap;rounded=0;fontSize=12;fontColor=#000000;align=center;" parent="1" vertex="1">
                    <mxGeometry x="80" y="70" width="1600" height="90" as="geometry"/>
                </mxCell>
                <mxCell id="3d76a8aef4d5c911-7" value="Zoeken" style="html=1;shadow=0;dashed=0;fillColor=none;strokeColor=none;shape=mxgraph.bootstrap.rect;fontColor=#999999;whiteSpace=wrap;fontSize=24;" parent="3d76a8aef4d5c911-1" vertex="1">
                    <mxGeometry x="480.0139130434782" width="160" height="90" as="geometry"/>
                </mxCell>
                <mxCell id="H9CyvaDkC_5dpCcxhKHN-2" value="Logout" style="html=1;shadow=0;dashed=0;fillColor=none;strokeColor=none;shape=mxgraph.bootstrap.rect;fontColor=#999999;whiteSpace=wrap;fontSize=24;" parent="3d76a8aef4d5c911-1" vertex="1">
                    <mxGeometry x="1460.0069565217393" width="140" height="90" as="geometry"/>
                </mxCell>
                <mxCell id="H9CyvaDkC_5dpCcxhKHN-4" value="About" style="html=1;shadow=0;dashed=0;fillColor=none;strokeColor=none;shape=mxgraph.bootstrap.rect;fontColor=#999999;whiteSpace=wrap;fontSize=24;" parent="3d76a8aef4d5c911-1" vertex="1">
                    <mxGeometry x="160.00304347826085" width="140" height="90" as="geometry"/>
                </mxCell>
                <mxCell id="sRhOgMImnw6MZSxmUimP-6" value="Contact" style="html=1;shadow=0;dashed=0;shape=mxgraph.bootstrap.rect;fillColor=#000000;strokeColor=none;fontColor=#ffffff;spacingRight=30;whiteSpace=wrap;fontSize=26;" parent="3d76a8aef4d5c911-1" vertex="1">
                    <mxGeometry x="310" width="180" height="90" as="geometry"/>
                </mxCell>
                <mxCell id="sRhOgMImnw6MZSxmUimP-7" value="Home" style="html=1;shadow=0;dashed=0;fillColor=none;strokeColor=none;shape=mxgraph.bootstrap.rect;fontColor=#999999;whiteSpace=wrap;fontSize=24;" parent="3d76a8aef4d5c911-1" vertex="1">
                    <mxGeometry x="-0.0030434782609063404" width="140" height="90" as="geometry"/>
                </mxCell>
                <mxCell id="3d76a8aef4d5c911-17" value="WF 3.0" style="html=1;shadow=0;dashed=0;shape=mxgraph.bootstrap.rect;strokeColor=none;fillColor=none;fontColor=#000000;align=left;spacingLeft=5;whiteSpace=wrap;rounded=0;fontStyle=1;fontSize=30;" parent="1" vertex="1">
                    <mxGeometry y="10" width="200" height="20" as="geometry"/>
                </mxCell>
                <mxCell id="3d76a8aef4d5c911-24" value="&lt;div style=&quot;&quot;&gt;&lt;span style=&quot;font-size: 50px; background-color: initial;&quot;&gt;Contact&lt;/span&gt;&lt;/div&gt;&lt;font style=&quot;&quot;&gt;&lt;div style=&quot;&quot;&gt;&lt;span style=&quot;font-size: 50px;&quot;&gt;&lt;br&gt;&lt;/span&gt;&lt;/div&gt;&lt;span style=&quot;color: rgba(0, 0, 0, 0); font-family: monospace; font-size: 0px; text-align: start;&quot;&gt;%3CmxGraphModel%3E%3Croot%3E%3CmxCell%20id%3D%220%22%2F%3E%3CmxCell%20id%3D%221%22%20parent%3D%220%22%2F%3E%3CmxCell%20id%3D%222%22%20value%3D%22%26lt%3Bfont%20style%3D%26quot%3Bfont-size%3A%2050px%26quot%3B%26gt%3BTitel...%26lt%3Bbr%26gt%3B%26lt%3B%2Ffont%26gt%3B%22%20style%3D%22html%3D1%3Bshadow%3D0%3Bdashed%3D0%3Bshape%3Dmxgraph.bootstrap.rrect%3BrSize%3D5%3BfontSize%3D12%3BstrokeColor%3D%23dddddd%3Balign%3Dleft%3Bspacing%3D10%3BverticalAlign%3Dtop%3BwhiteSpace%3Dwrap%3Brounded%3D0%3B%22%20vertex%3D%221%22%20parent%3D%221%22%3E%3CmxGeometry%20x%3D%2280%22%20y%3D%22270%22%20width%3D%22683%22%20height%3D%2290%22%20as%3D%22geometry%22%2F%3E%3C%2FmxCell%3E%3C%2Froot%3E%3C%2FmxGraphModel%3E&lt;/span&gt;&lt;span style=&quot;font-size: 50px;&quot;&gt;&lt;div style=&quot;&quot;&gt;&lt;span style=&quot;color: rgba(0, 0, 0, 0); font-family: monospace; font-size: 0px; text-align: start;&quot;&gt;ff 3CmxGraphModel%3E%3Croot%3E%3CmxCell%20id%3D%220%22%2F%3E%3CmxCell%20id%3D%221%22%20parent%3D%220%22%2F%3E%3CmxCell%20id%3D%222%22%20value%3D%22%26lt%3Bfont%20style%3D%26quot%3Bfont-size%3A%2050px%26quot%3B%26gt%3BTitel...%26lt%3Bbr%26gt%3B%26lt%3B%2Ffont%26gt%3B%22%20style%3D%22html%3D1%3Bshadow%3D0%3Bdashed%3D0%3Bshape%3Dmxgraph.bootstrap.rrect%3BrSize%3D5%3BfontSize%3D12%3BstrokeColor%3D%23dddddd%3Balign%3Dleft%3Bspacing%3D10%3BverticalAlign%3Dtop%3BwhiteSpace%3Dwrap%3Brounded%3D0%3B%22%20vertex%3D%221%22%20parent%3D%221%22%3E%3CmxGeometry%20x%3D%2280%22%20y%3D%22270%22%20width%3D%22683%22%20height%3D%2290%22%20as%3D%22geometry%22%2F%3E%3C%2FmxCell%3E%3C%2Froot%3E%3C%2FmxGraphModel%3Erdeder&lt;/span&gt;&lt;br&gt;&lt;/div&gt;&lt;/span&gt;&lt;/font&gt;" style="html=1;shadow=0;dashed=0;shape=mxgraph.bootstrap.rrect;rSize=5;fontSize=12;strokeColor=#dddddd;align=center;spacing=10;verticalAlign=top;whiteSpace=wrap;rounded=0;" parent="1" vertex="1">
                    <mxGeometry x="80" y="240" width="1600" height="800" as="geometry"/>
                </mxCell>
                <mxCell id="H9CyvaDkC_5dpCcxhKHN-5" value="" style="html=1;shadow=0;dashed=0;shape=mxgraph.bootstrap.rect;fillColor=#222222;strokeColor=none;whiteSpace=wrap;rounded=0;fontSize=12;fontColor=#000000;align=center;" parent="1" vertex="1">
                    <mxGeometry x="80" y="1110" width="1600" height="90" as="geometry"/>
                </mxCell>
                <mxCell id="H9CyvaDkC_5dpCcxhKHN-9" value="Footer tekst" style="html=1;shadow=0;dashed=0;fillColor=none;strokeColor=none;shape=mxgraph.bootstrap.rect;fontColor=#999999;whiteSpace=wrap;fontSize=24;" parent="H9CyvaDkC_5dpCcxhKHN-5" vertex="1">
                    <mxGeometry x="50" width="340" height="90" as="geometry"/>
                </mxCell>
                <mxCell id="sRhOgMImnw6MZSxmUimP-1" value="&lt;font style=&quot;font-size: 24px;&quot;&gt;Naam&lt;/font&gt;" style="rounded=0;whiteSpace=wrap;html=1;" parent="1" vertex="1">
                    <mxGeometry x="645" y="380" width="470" height="60" as="geometry"/>
                </mxCell>
                <mxCell id="sRhOgMImnw6MZSxmUimP-2" value="&lt;font style=&quot;font-size: 24px;&quot;&gt;Email adres&lt;/font&gt;" style="rounded=0;whiteSpace=wrap;html=1;" parent="1" vertex="1">
                    <mxGeometry x="650" y="490" width="470" height="60" as="geometry"/>
                </mxCell>
                <mxCell id="sRhOgMImnw6MZSxmUimP-3" value="&lt;font style=&quot;font-size: 24px;&quot;&gt;Telefoon nummer&lt;/font&gt;" style="rounded=0;whiteSpace=wrap;html=1;" parent="1" vertex="1">
                    <mxGeometry x="650" y="580" width="470" height="60" as="geometry"/>
                </mxCell>
                <mxCell id="sRhOgMImnw6MZSxmUimP-4" value="&lt;font style=&quot;font-size: 24px;&quot;&gt;Bericht&lt;/font&gt;" style="rounded=0;whiteSpace=wrap;html=1;" parent="1" vertex="1">
                    <mxGeometry x="650" y="680" width="470" height="200" as="geometry"/>
                </mxCell>
                <mxCell id="sRhOgMImnw6MZSxmUimP-5" value="&lt;font style=&quot;font-size: 24px;&quot;&gt;Bericht versturen&lt;/font&gt;" style="rounded=0;whiteSpace=wrap;html=1;" parent="1" vertex="1">
                    <mxGeometry x="650" y="930" width="470" height="60" as="geometry"/>
                </mxCell>
            </root>
        </mxGraphModel>
    </diagram>
</mxfile>